# xmcd CD database file
#
# Track frame offsets:
#	150
#	30101
#	63704
#	88620
#	99478
#	137022
#	175755
#	193512
#	252687
#
# Disc length: 4108 seconds
#
# Revision: 0
# Processed by: cddbd v1.5.1PL2 Copyright (c) Steve Scherf et al.
# Submitted via: CDex 1.51
#
DISCID=74100a09
DTITLE=La Pichanga - Arriba de la pelota
DYEAR=2006
DGENRE=Jazz
TTITLE0=El catre de tres patas
TTITLE1=Solo para ti
TTITLE2=Cindy-Llei
TTITLE3=Tiro Libre I
TTITLE4=La Pachanga
TTITLE5=Senda Pedregosa
TTITLE6=Tiro Libre II
TTITLE7=De nuevo
TTITLE8=De ida y vuelta
EXTD=YEAR: 2006
EXTT0=
EXTT1=
EXTT2=
EXTT3=
EXTT4=
EXTT5=
EXTT6=
EXTT7=
EXTT8=
PLAYORDER=
